<svg xmlns="http://www.w3.org/2000/svg" xmlns:xlink="http://www.w3.org/1999/xlink" viewBox="0 0 1181.84 382.05"><defs><style>.cls-1{fill:none;}.cls-2{fill:#0e3538;}.cls-3{fill:#2a5a60;stroke:#e8c651;stroke-miterlimit:10;stroke-width:3px;}.cls-4{opacity:0.32;}.cls-5{clip-path:url(#clip-path);}.cls-6{fill:#f4eee9;}</style><clipPath id="clip-path" transform="translate(49.72)"><path class="cls-1" d="M631.8,14.85l5.51-2.75c7.21,8.1,15,4.51,22.48.69C685.86-.58,713-1.27,740.53,6.51c21.39,6,38.4,18,45.73,40.16a55.3,55.3,0,0,1,2.92,16.69c.25,33.12.39,66.25,0,99.37-.33,26.33-17,49.39-40.89,57.79-16.25,5.7-32.06,3.95-47.42-3.39-1.9-.91-3.83-1.79-5.72-2.66-.44.49-.89.75-.89,1-.07,19.4-.28,38.8,0,58.19.09,7.32,2.23,8.95,9.42,10,1.28.2,3.5,1.63,3.4,2.13a7.45,7.45,0,0,1-2.4,4.46c-16.07,11.2-30.3,24.34-42,40.06a97.11,97.11,0,0,0-10.51,18.26c-3.12,7-3.36,14.4.73,21.49.61,1.07.7,3.24,0,4s-2.79,1.19-4,.86c-8.33-2.25-16.67-4.51-24.81-7.32-1.87-.65-4.39-3.64-4.18-5.23.7-5.28,1.12-11.5,4.17-15.4,7.17-9.2,15.59-17.47,23.94-25.68,2.9-2.85,4.39-5.39,4.38-9.51q-.18-98.21-.09-196.41c0-4.31.25-8.33-5-10.74a3.76,3.76,0,0,1,.63-6.92c19.73-7.68,34.34-22.43,50.23-35.45,5.94-4.87,12.13-9.4,20.49-9.05,10.58.44,14.62,7,9.84,16.24-2,3.82-4,7.66-6,11.47-1.73,3.27-3.37,4-5.82.36-5.66-8.43-15.51-7.84-19.9,1.3a27.69,27.69,0,0,0-2.59,10.74c-.37,10.37-.37,20.78-.07,31.15,0,1.71,2,4,3.64,4.9,4.53,2.3,9.44,3.82,14.07,6,1.31.6,2.16,2.2,3.22,3.35-1.13.89-2.13,2.22-3.42,2.6-12.74,3.8-18.66,11.47-18.2,23.81s8,21.47,20.26,24.08c17.57,3.75,32.06-6.79,33.52-24.61.46-5.65.33-11.36.34-17,0-24.3.09-48.61,0-72.92-.1-20.63-13-34.16-33.62-35.68a72.17,72.17,0,0,0-36.57,7c-37.19,17.49-61.12,62.88-53.14,101,2,9.78,5.8,18.4,18.72,21.59L614,196.26c-11.56-5.89-18.67-20.79-15.75-36.53a346.67,346.67,0,0,1,11-41.94c5-15.66,11.45-30.85,16.59-46.47C631.81,53.17,635.85,34.64,631.8,14.85ZM113.22,195.7a4,4,0,0,0-1.39-1c-7.35-2.81-11.23-8.79-10.89-16,.58-12.22,1.16-24.77,4.35-36.47,11.37-41.66,30.13-80.21,52-117.32A38.46,38.46,0,0,0,159,21.29L153.14,17c-6.54,5.67-13.12,5.73-20.06,2.08-4.34-2.28-8.71-4.49-13.1-6.67A97.78,97.78,0,0,0,71.66,1.78C42.47,3,20.23,19.14,13.76,46.49,8,70.7,8.69,95.58,13.09,120c2.49,13.82,10.05,24.64,25,28.26.41.1.67.81,1.36,1.7-1.74.88-3.18,1.74-4.72,2.36A38.16,38.16,0,0,0,15.4,169.71c-4.5,8.08-6.11,16.82-6.09,26,.08,33.91.28,67.82-.15,101.72-.09,7.24-.75,15.7-4.53,21.33-4,6-3.89,10-1.19,15.55A45,45,0,0,1,7,343.67c1.11,4.68,3.69,5.9,8.41,5.88,42.4-.19,84.81-.11,127.21-.11,1,0,2,.06,2.94,0,3.65-.34,5.38-1.78,2.5-5.17a32.55,32.55,0,0,1-7.6-22.36c.37-15.44,1.75-30.85,2.67-46.28.71-11.87,1.89-23.76,1.82-35.63,0-6.53-4-12-10.4-14.48a8.39,8.39,0,0,0-6.81.85c-6.51,4.71-12.62,10-18.9,15-3.48,2.78-3.64,5,1,6.5a23.27,23.27,0,0,1,14.76,14.25c5.92,15.27,5.11,30.69.07,46-1.17,3.55-3.53,5-7.55,5-24.34-.18-48.69-.08-73-.11a40.39,40.39,0,0,1-4.75-.54l-.87-1.16c13.62-8.23,12.45-21.37,12.44-34.12V244.85c0-16.85-.15-33.71.06-50.56C51.12,177.82,66,164,80.17,167c-.48,2.27-.94,4.55-1.43,6.82-2.18,10-3.61,20.11-.94,30.26,1.52,5.78,4,11,10.15,13.84l26.11-20.18A9.54,9.54,0,0,0,113.22,195.7ZM90.85,94.18l15.4,5.33c-4.48,10.21-8.68,20.07-13.22,29.77-.62,1.33-2.91,2.56-4.5,2.66-5.28.32-10.59.21-15.88.06a16.27,16.27,0,0,1-14.41-8.83C55.18,117.4,52,111,51.56,104.68c-.87-13.62-1.22-27.51.46-41,2.72-21.91,27.13-32.3,46-20.53,12,7.49,15.77,28.37,6.51,39.05-2.85,3.28-7.65,4.88-12.73,8C91.75,90.23,91.37,91.91,90.85,94.18Zm280.81,54.31c-1.64.92-3.63,3.11-3.64,4.75-.17,33.5-.88,67,.25,100.49.83,24.4,12.21,43.51,36.47,51.71,9.23,3.12,19.64,4.16,29.46,3.92,32.43-.78,55.57-23.76,56-56.18.61-46,.24-92.07.09-138.11a54.09,54.09,0,0,0-8.48-28.37c-12.86-20.94-39-31.52-66.26-26.85-30.2,5.18-47,25.89-45.73,56.44.43,10.66,4.11,20.18,10.6,29.26C377.09,146.61,374.13,147.1,371.66,148.49Zm77.22,98.82a69.9,69.9,0,0,1-.83,11.11c-1.75,10.63-8.79,17-18.56,17.05S412,268.7,410.32,258.18a66.29,66.29,0,0,1-.64-10.55c-.05-30.57.06-61.14-.13-91.71,0-4.44,1.05-7.4,5.11-9.47a75.21,75.21,0,0,0,9.9-6.34c1.26-.92,2-2.56,2.95-3.87-1.33-.9-2.55-2.2-4-2.63-11-3.23-16.7-15.14-12.76-27,3.49-10.46,14.65-15.12,25.49-10.43,7.43,3.21,10.84,9.63,11.68,17.15a220.72,220.72,0,0,1,1,22.87c.14,16.85.05,33.7.05,50.56C448.91,206.94,449,227.13,448.88,247.31ZM862.63,271.4c-.08-27.43-.22-54.86,0-82.29,0-1.74,2.48-4.35,4.37-5.05,11.31-4.16,20.36-.52,26.71,10.46,1.68,2.91,3.81,4.29,5.45.86,5.53-11.61,10.55-23.47,16-35.66-19.11-12.83-36.09-9.69-52.18,5V99.17c12.66,0,24.8.15,36.94-.07,5.59-.1,10.61.4,13.44,6.4l6.05-2.2c-2.17-13.53-4.3-26.78-6.45-40.13-1.5-.16-2.46-.35-3.41-.35-29.64,0-59.28.07-88.91-.12-4.77,0-5.47,2.61-6,6.42,5.35,2.25,6,6.8,6,12q-.14,103.17,0,206.34c0,5.56-.39,10.56-5.76,12.89-.07,5.68,2.9,6.55,7.3,6.44,9.81-.26,19.63,0,29.44-.1,14.52-.11,29.08.27,43.55-.66,14.77-.94,26.95-6.95,32.74-21.82.68-1.76,1.48-4,.94-5.61-3.89-11.44-8.11-22.77-12.18-34-5.42.8-5.42.8-6.31,4.94-2.92,13.58-11.69,22.15-25.09,23.42-7.17.68-14.46.12-21.8.12C862.92,272.09,862.63,271.75,862.63,271.4Zm140.51-165.52q-32.94,79.83-66,159.61c-2.07,5-2.12,9,.36,13.78,4,7.64,7,15.75,11,23.4,1,1.89,3.94,3.89,6,3.91,29.83.25,59.66.2,89.49.12,1.84,0,3.67-.85,6.44-1.54-7.34-7.28-8.67-15.43-7.75-23.77,1.19-10.68,3.65-21.21,4.93-31.88,1.2-10,2.27-20.18,2.08-30.25-.14-6.69-4.14-12.24-11.05-14.55-1.42-.48-3.85-.49-4.74.38-6.1,6-11.92,12.25-18.35,19,10.14,3.51,14.63,10.78,16,19.64,1,6.69.65,13.62.52,20.44-.09,4.4-2.48,6.29-7.26,6.19-13.93-.29-27.86-.08-41.8-.13a49.25,49.25,0,0,1-5.4-.62c.9-2.51,1.47-4.34,2.19-6.11q32.81-80.52,65.56-161.06c1-2.54,1.78-5.78,1.14-8.31-2.37-9.29-5.21-18.47-8.31-27.54C1037.62,65,1035,63,1033.36,63q-39.43-.33-78.89,0c-1.47,0-4,1.53-4.21,2.68-2.23,12.48-4.09,25-6.1,37.82l4.55,1.55c3.78-2.34,6.45-5.39,9.2-5.47,15.61-.47,31.25-.23,47.71-.23C1004.61,102,1003.94,104,1003.14,105.88ZM212.66,261.8q0-89.37,0-178.74c0-5.9.09-11.45,6.06-14.13-.22-5.09-2.6-6.33-7-6.24-13.15.28-26.31.24-39.46,0-4.55-.08-7.28,1-6.87,6.65,5.36,2,5.72,6.8,5.7,12-.07,28.42,0,56.84,0,85.26,0,40.57.06,81.14-.12,121.71a18,18,0,0,1-2.82,9.71c-1.46,2.1-4.15,3.54-2.05,6.13a8.21,8.21,0,0,0,5.7,2.52q45.64.23,91.29.06c1.93,0,3.86-.59,6.94-1.09-10.3-11.63-8.67-24.18-6.41-36.6,1.74-9.62,4.58-19,6.45-28.64,2.1-10.72,4.42-21.49,5.22-32.35.58-8-2.24-15.67-10.34-19.61-1.79-.88-5.21-1.25-6.34-.2-6.39,5.92-12.31,12.33-18.53,18.72,10.15,5.68,12.83,8.74,14.54,17.28,2.84,14.17,1.28,28.11-3.16,41.72-.56,1.74-3,4-4.66,4.07-11,.36-21.92.19-34.08.19Zm130.43,38c-5.17-3.33-4.73-8.18-4.73-13.07q0-101.73,0-203.47c0-5.79-.55-11.65,5.88-14-.07-5-1.9-6.63-6.21-6.55q-20.31.34-40.64,0c-4.58-.07-6.56,1.63-6.31,6.45,5.28,2.56,5.92,7.37,5.84,12.78-.19,11.37-.06,22.74-.06,34.1,0,57.24.07,114.48-.16,171.71,0,3.72-2.37,7.42-3.63,11.13-.55,1.62-1.9,3.55-1.43,4.8a5.55,5.55,0,0,0,4.16,2.93c15.5.21,31,.13,47.47.13C343.24,304.1,344.13,300.43,343.09,299.77Z"/></clipPath></defs><g id="Layer_2" data-name="Layer 2"><g id="Layer_1-2" data-name="Layer 1"><path class="cls-2" d="M640.9,21.78,646.41,19c7.22,8.11,15,4.52,22.48.7C695,6.35,722.11,5.65,749.63,13.43c21.39,6,38.4,18,45.73,40.16a55.35,55.35,0,0,1,2.92,16.69c.25,33.12.39,66.26,0,99.38-.33,26.32-17,49.38-40.89,57.78-16.25,5.71-32,3.95-47.42-3.39-1.9-.91-3.83-1.78-5.71-2.66-.45.49-.9.75-.9,1-.06,19.39-.27,38.79,0,58.18.1,7.33,2.24,9,9.43,10,1.27.19,3.49,1.62,3.39,2.12a7.45,7.45,0,0,1-2.4,4.46c-16.07,11.2-30.3,24.34-41.94,40.07a97.31,97.31,0,0,0-10.52,18.25c-3.12,7-3.36,14.41.73,21.49.62,1.07.7,3.24,0,4.05s-2.79,1.19-4,.85c-8.32-2.25-16.67-4.51-24.81-7.32-1.87-.64-4.39-3.64-4.18-5.23.7-5.28,1.13-11.49,4.17-15.4,7.17-9.19,15.59-17.47,23.94-25.68,2.9-2.84,4.39-5.39,4.38-9.51q-.16-98.2-.09-196.4c0-4.31.26-8.34-5-10.75a3.75,3.75,0,0,1,.62-6.91c19.73-7.68,34.34-22.44,50.23-35.46,5.94-4.87,12.13-9.4,20.49-9.05,10.58.45,14.62,7.05,9.84,16.24-2,3.83-3.95,7.66-6,11.48-1.72,3.27-3.37,4-5.82.35-5.66-8.42-15.51-7.84-19.9,1.31a27.64,27.64,0,0,0-2.59,10.73c-.37,10.38-.36,20.78-.07,31.16,0,1.7,2,4,3.64,4.89,4.53,2.3,9.44,3.83,14.07,5.95,1.31.6,2.16,2.21,3.23,3.35-1.14.89-2.14,2.22-3.43,2.61-12.73,3.8-18.66,11.46-18.19,23.8s8,21.48,20.25,24.08c17.57,3.76,32.06-6.78,33.52-24.61.46-5.65.33-11.35.34-17,0-24.3.1-48.61,0-72.91-.1-20.63-13-34.17-33.61-35.68a72.12,72.12,0,0,0-36.57,7c-37.2,17.49-61.13,62.88-53.15,101,2.05,9.79,5.8,18.4,18.72,21.59L623.1,203.18c-11.56-5.88-18.66-20.78-15.75-36.53a346.52,346.52,0,0,1,11-41.93c5-15.66,11.45-30.86,16.6-46.47C640.91,60.09,645,41.56,640.9,21.78ZM122.33,202.62a4.24,4.24,0,0,0-1.4-1c-7.35-2.81-11.23-8.79-10.89-16,.59-12.22,1.16-24.78,4.36-36.48,11.36-41.65,30.13-80.21,52-117.31.64-1.1,1.07-2.32,1.67-3.63l-5.82-4.27c-6.53,5.67-13.12,5.73-20.05,2.08-4.34-2.28-8.72-4.49-13.11-6.67A97.78,97.78,0,0,0,80.76,8.7C51.57,9.94,29.34,26.06,22.87,53.41c-5.73,24.21-5.08,49.1-.68,73.54,2.49,13.81,10.05,24.63,25,28.26.4.09.66.8,1.35,1.69-1.74.88-3.18,1.74-4.72,2.37A38.14,38.14,0,0,0,24.5,176.63c-4.5,8.09-6.1,16.83-6.08,26,.08,33.91.27,67.82-.16,101.72-.09,7.24-.75,15.7-4.53,21.33-4,6-3.89,10-1.18,15.55a45.18,45.18,0,0,1,3.5,9.34c1.12,4.68,3.69,5.9,8.41,5.88,42.4-.19,84.81-.11,127.21-.11,1,0,2,.06,3,0,3.64-.34,5.37-1.78,2.5-5.16a32.6,32.6,0,0,1-7.61-22.37c.37-15.44,1.75-30.85,2.67-46.28.71-11.87,1.9-23.75,1.82-35.63,0-6.52-4-12-10.4-14.47a8.32,8.32,0,0,0-6.81.85c-6.51,4.7-12.62,9.95-18.9,15-3.48,2.78-3.64,5,1,6.51A23.21,23.21,0,0,1,133.65,269c5.93,15.27,5.11,30.69.07,46-1.17,3.54-3.52,5-7.55,5-24.34-.17-48.68-.07-73-.11a40.22,40.22,0,0,1-4.74-.54l-.87-1.15C61.14,310,60,296.87,60,284.12q0-16.17,0-32.34c0-16.86-.16-33.72.05-50.57.2-16.46,15-30.26,29.25-27.25-.48,2.28-.94,4.55-1.43,6.83-2.17,10-3.61,20.1-.93,30.25,1.52,5.78,4,11,10.14,13.84l26.11-20.18A10.46,10.46,0,0,0,122.33,202.62ZM100,101.11l15.4,5.32c-4.48,10.21-8.67,20.07-13.21,29.77-.63,1.34-2.92,2.56-4.5,2.66-5.28.32-10.6.21-15.89.07a16.29,16.29,0,0,1-14.41-8.83c-3.06-5.78-6.28-12.19-6.68-18.5-.87-13.62-1.21-27.5.46-41,2.72-21.9,27.14-32.3,46-20.53,12,7.49,15.77,28.38,6.51,39.05-2.85,3.28-7.64,4.88-12.72,8Zm280.82,54.3c-1.64.92-3.64,3.12-3.65,4.75-.16,33.5-.88,67,.25,100.49.83,24.41,12.21,43.51,36.47,51.71,9.24,3.13,19.64,4.16,29.46,3.92,32.44-.78,55.57-23.75,56-56.18.62-46,.24-92.07.1-138.1a54.1,54.1,0,0,0-8.49-28.38c-12.86-20.93-39-31.51-66.26-26.85-30.2,5.18-47,25.9-45.73,56.45.43,10.65,4.11,20.17,10.61,29.25C386.2,153.53,383.23,154,380.77,155.41ZM458,254.23a70.11,70.11,0,0,1-.82,11.12c-1.76,10.62-8.8,17-18.56,17s-17.46-6.77-19.17-17.29a65,65,0,0,1-.65-10.54c0-30.57.06-61.15-.13-91.72,0-4.43,1.05-7.39,5.11-9.47a74.55,74.55,0,0,0,9.9-6.34c1.26-.91,2-2.55,3-3.86-1.34-.9-2.55-2.21-4-2.64-11-3.23-16.7-15.14-12.75-27,3.48-10.47,14.64-15.12,25.49-10.43,7.42,3.21,10.83,9.63,11.67,17.15a223.23,223.23,0,0,1,1,22.86c.13,16.85,0,33.71,0,50.56C458,213.86,458.06,234.05,458,254.23Zm413.75,24.09c-.08-27.43-.22-54.86,0-82.28,0-1.75,2.49-4.36,4.37-5,11.31-4.16,20.36-.53,26.71,10.46,1.68,2.9,3.82,4.28,5.45.85,5.53-11.61,10.55-23.47,16-35.66-19.12-12.83-36.1-9.69-52.18,5V106.09c12.65,0,24.8.16,36.93-.06,5.6-.1,10.61.39,13.44,6.39l6.05-2.19c-2.17-13.54-4.3-26.79-6.45-40.14-1.5-.16-2.45-.35-3.41-.35-29.64,0-59.27.08-88.91-.12-4.77,0-5.46,2.61-6,6.42,5.34,2.25,6,6.81,5.95,12q-.13,103.17,0,206.35c0,5.56-.39,10.55-5.75,12.88-.08,5.69,2.89,6.55,7.29,6.44,9.81-.26,19.63,0,29.44-.1,14.52-.11,29.08.27,43.55-.65,14.77-.94,26.95-7,32.74-21.83.68-1.75,1.48-4,.94-5.6-3.89-11.45-8.11-22.78-12.18-34-5.41.8-5.41.8-6.31,4.94-2.92,13.58-11.69,22.15-25.09,23.42-7.17.69-14.46.13-21.8.13C872,279,871.73,278.67,871.73,278.32ZM1012.24,112.8q-32.94,79.83-66,159.61c-2.07,5-2.11,9,.37,13.78,4,7.64,7,15.76,11,23.4,1,1.89,3.94,3.9,6,3.91,29.83.26,59.66.2,89.49.12,1.84,0,3.68-.85,6.44-1.53-7.34-7.29-8.66-15.44-7.74-23.77,1.18-10.68,3.64-21.22,4.92-31.89,1.2-10,2.28-20.17,2.08-30.24-.13-6.7-4.13-12.25-11-14.56-1.42-.48-3.85-.48-4.74.39-6.1,6-11.92,12.24-18.35,19,10.15,3.51,14.63,10.78,16,19.65,1,6.68.66,13.62.52,20.43-.09,4.4-2.48,6.3-7.26,6.2-13.92-.3-27.86-.09-41.8-.14a51.84,51.84,0,0,1-5.4-.61c.9-2.52,1.48-4.35,2.2-6.12q32.8-80.52,65.55-161.06c1-2.54,1.78-5.78,1.14-8.31-2.37-9.28-5.21-18.46-8.3-27.54-.55-1.61-3.15-3.59-4.82-3.6q-39.44-.34-78.89,0c-1.46,0-4,1.53-4.21,2.68-2.23,12.48-4.09,25-6.1,37.83l4.55,1.54c3.78-2.34,6.45-5.38,9.2-5.47,15.62-.46,31.25-.22,47.71-.22C1013.71,108.89,1013,110.87,1012.24,112.8ZM221.76,268.73q0-89.39,0-178.75c0-5.89.1-11.45,6.06-14.12-.22-5.1-2.6-6.34-7-6.25-13.15.28-26.31.25-39.45,0-4.56-.07-7.28,1-6.88,6.65,5.36,2,5.72,6.81,5.71,12-.08,28.42,0,56.84,0,85.26,0,40.57.06,81.14-.12,121.71a17.92,17.92,0,0,1-2.82,9.71c-1.45,2.1-4.15,3.55-2.05,6.13a8.22,8.22,0,0,0,5.71,2.52c30.43.15,60.85.12,91.28.07,1.93,0,3.87-.6,6.94-1.1-10.3-11.62-8.66-24.17-6.41-36.6,1.74-9.62,4.58-19,6.46-28.63,2.1-10.73,4.42-21.5,5.21-32.36.59-8-2.24-15.67-10.34-19.61-1.79-.88-5.2-1.24-6.34-.2-6.38,5.92-12.3,12.34-18.52,18.73,10.14,5.68,12.82,8.74,14.53,17.27,2.85,14.17,1.28,28.11-3.15,41.72-.57,1.74-3,4-4.67,4.07-11,.37-21.92.19-34.08.19Zm130.43,38c-5.16-3.32-4.73-8.18-4.73-13.07q0-101.73,0-203.46c0-5.79-.54-11.66,5.88-14-.07-5-1.9-6.62-6.21-6.55q-20.31.34-40.63,0c-4.59-.08-6.57,1.62-6.32,6.45,5.28,2.55,5.93,7.37,5.84,12.77-.18,11.37-.06,22.74-.06,34.11,0,57.23.07,114.47-.16,171.71,0,3.71-2.37,7.41-3.63,11.12-.55,1.63-1.89,3.55-1.43,4.8a5.57,5.57,0,0,0,4.17,2.93c15.49.21,31,.13,47.46.13C352.34,311,353.23,307.36,352.19,306.69Z" transform="translate(49.72)"/><path class="cls-3" d="M631.8,14.85l5.51-2.75c7.21,8.1,15,4.51,22.48.69C685.86-.58,713-1.27,740.53,6.51c21.39,6,38.4,18,45.73,40.16a55.3,55.3,0,0,1,2.92,16.69c.25,33.12.39,66.25,0,99.37-.33,26.33-17,49.39-40.89,57.79-16.25,5.7-32.06,3.95-47.42-3.39-1.9-.91-3.83-1.79-5.72-2.66-.44.49-.89.75-.89,1-.07,19.4-.28,38.8,0,58.19.09,7.32,2.23,8.95,9.42,10,1.28.2,3.5,1.63,3.4,2.13a7.45,7.45,0,0,1-2.4,4.46c-16.07,11.2-30.3,24.34-42,40.06a97.11,97.11,0,0,0-10.51,18.26c-3.12,7-3.36,14.4.73,21.49.61,1.07.7,3.24,0,4s-2.79,1.19-4,.86c-8.33-2.25-16.67-4.51-24.81-7.32-1.87-.65-4.39-3.64-4.18-5.23.7-5.28,1.12-11.5,4.17-15.4,7.17-9.2,15.59-17.47,23.94-25.68,2.9-2.85,4.39-5.39,4.38-9.51q-.18-98.21-.09-196.41c0-4.31.25-8.33-5-10.74a3.76,3.76,0,0,1,.63-6.92c19.73-7.68,34.34-22.43,50.23-35.45,5.94-4.87,12.13-9.4,20.49-9.05,10.58.44,14.62,7,9.84,16.24-2,3.82-4,7.66-6,11.47-1.73,3.27-3.37,4-5.82.36-5.66-8.43-15.51-7.84-19.9,1.3a27.69,27.69,0,0,0-2.59,10.74c-.37,10.37-.37,20.78-.07,31.15,0,1.71,2,4,3.64,4.9,4.53,2.3,9.44,3.82,14.07,6,1.31.6,2.16,2.2,3.22,3.35-1.13.89-2.13,2.22-3.42,2.6-12.74,3.8-18.66,11.47-18.2,23.81s8,21.47,20.26,24.08c17.57,3.75,32.06-6.79,33.52-24.61.46-5.65.33-11.36.34-17,0-24.3.09-48.61,0-72.92-.1-20.63-13-34.16-33.62-35.68a72.17,72.17,0,0,0-36.57,7c-37.19,17.49-61.12,62.88-53.14,101,2,9.78,5.8,18.4,18.72,21.59L614,196.26c-11.56-5.89-18.67-20.79-15.75-36.53a346.67,346.67,0,0,1,11-41.94c5-15.66,11.45-30.85,16.59-46.47C631.81,53.17,635.85,34.64,631.8,14.85ZM113.22,195.7a4,4,0,0,0-1.39-1c-7.35-2.81-11.23-8.79-10.89-16,.58-12.22,1.16-24.77,4.35-36.47,11.37-41.66,30.13-80.21,52-117.32A38.46,38.46,0,0,0,159,21.29L153.14,17c-6.54,5.67-13.12,5.73-20.06,2.08-4.34-2.28-8.71-4.49-13.1-6.67A97.78,97.78,0,0,0,71.66,1.78C42.47,3,20.23,19.14,13.76,46.49,8,70.7,8.69,95.58,13.09,120c2.49,13.82,10.05,24.64,25,28.26.41.1.67.81,1.36,1.7-1.74.88-3.18,1.74-4.72,2.36A38.16,38.16,0,0,0,15.4,169.71c-4.5,8.08-6.11,16.82-6.09,26,.08,33.91.28,67.82-.15,101.72-.09,7.24-.75,15.7-4.53,21.33-4,6-3.89,10-1.19,15.55A45,45,0,0,1,7,343.67c1.11,4.68,3.69,5.9,8.41,5.88,42.4-.19,84.81-.11,127.21-.11,1,0,2,.06,2.94,0,3.65-.34,5.38-1.78,2.5-5.17a32.55,32.55,0,0,1-7.6-22.36c.37-15.44,1.75-30.85,2.67-46.28.71-11.87,1.89-23.76,1.82-35.63,0-6.53-4-12-10.4-14.48a8.39,8.39,0,0,0-6.81.85c-6.51,4.71-12.62,10-18.9,15-3.48,2.78-3.64,5,1,6.5a23.27,23.27,0,0,1,14.76,14.25c5.92,15.27,5.11,30.69.07,46-1.17,3.55-3.53,5-7.55,5-24.34-.18-48.69-.08-73-.11a40.39,40.39,0,0,1-4.75-.54l-.87-1.16c13.62-8.23,12.45-21.37,12.44-34.12V244.85c0-16.85-.15-33.71.06-50.56C51.12,177.82,66,164,80.17,167c-.48,2.27-.94,4.55-1.43,6.82-2.18,10-3.61,20.11-.94,30.26,1.52,5.78,4,11,10.15,13.84l26.11-20.18A9.54,9.54,0,0,0,113.22,195.7ZM90.85,94.18l15.4,5.33c-4.48,10.21-8.68,20.07-13.22,29.77-.62,1.33-2.91,2.56-4.5,2.66-5.28.32-10.59.21-15.88.06a16.27,16.27,0,0,1-14.41-8.83C55.18,117.4,52,111,51.56,104.68c-.87-13.62-1.22-27.51.46-41,2.72-21.91,27.13-32.3,46-20.53,12,7.49,15.77,28.37,6.51,39.05-2.85,3.28-7.65,4.88-12.73,8C91.75,90.23,91.37,91.91,90.85,94.18Zm280.81,54.31c-1.64.92-3.63,3.11-3.64,4.75-.17,33.5-.88,67,.25,100.49.83,24.4,12.21,43.51,36.47,51.71,9.23,3.12,19.64,4.16,29.46,3.92,32.43-.78,55.57-23.76,56-56.18.61-46,.24-92.07.09-138.11a54.09,54.09,0,0,0-8.48-28.37c-12.86-20.94-39-31.52-66.26-26.85-30.2,5.18-47,25.89-45.73,56.44.43,10.66,4.11,20.18,10.6,29.26C377.09,146.61,374.13,147.1,371.66,148.49Zm77.22,98.82a69.9,69.9,0,0,1-.83,11.11c-1.75,10.63-8.79,17-18.56,17.05S412,268.7,410.32,258.18a66.29,66.29,0,0,1-.64-10.55c-.05-30.57.06-61.14-.13-91.71,0-4.44,1.05-7.4,5.11-9.47a75.21,75.21,0,0,0,9.9-6.34c1.26-.92,2-2.56,2.95-3.87-1.33-.9-2.55-2.2-4-2.63-11-3.23-16.7-15.14-12.76-27,3.49-10.46,14.65-15.12,25.49-10.43,7.43,3.21,10.84,9.63,11.68,17.15a220.72,220.72,0,0,1,1,22.87c.14,16.85.05,33.7.05,50.56C448.91,206.94,449,227.13,448.88,247.31ZM862.63,271.4c-.08-27.43-.22-54.86,0-82.29,0-1.74,2.48-4.35,4.37-5.05,11.31-4.16,20.36-.52,26.71,10.46,1.68,2.91,3.81,4.29,5.45.86,5.53-11.61,10.55-23.47,16-35.66-19.11-12.83-36.09-9.69-52.18,5V99.17c12.66,0,24.8.15,36.94-.07,5.59-.1,10.61.4,13.44,6.4l6.05-2.2c-2.17-13.53-4.3-26.78-6.45-40.13-1.5-.16-2.46-.35-3.41-.35-29.64,0-59.28.07-88.91-.12-4.77,0-5.47,2.61-6,6.42,5.35,2.25,6,6.8,6,12q-.14,103.17,0,206.34c0,5.56-.39,10.56-5.76,12.89-.07,5.68,2.9,6.55,7.3,6.44,9.81-.26,19.63,0,29.44-.1,14.52-.11,29.08.27,43.55-.66,14.77-.94,26.95-6.95,32.74-21.82.68-1.76,1.48-4,.94-5.61-3.89-11.44-8.11-22.77-12.18-34-5.42.8-5.42.8-6.31,4.94-2.92,13.58-11.69,22.15-25.09,23.42-7.17.68-14.46.12-21.8.12C862.92,272.09,862.63,271.75,862.63,271.4Zm140.51-165.52q-32.94,79.83-66,159.61c-2.07,5-2.12,9,.36,13.78,4,7.64,7,15.75,11,23.4,1,1.89,3.94,3.89,6,3.91,29.83.25,59.66.2,89.49.12,1.84,0,3.67-.85,6.44-1.54-7.34-7.28-8.67-15.43-7.75-23.77,1.19-10.68,3.65-21.21,4.93-31.88,1.2-10,2.27-20.18,2.08-30.25-.14-6.69-4.14-12.24-11.05-14.55-1.42-.48-3.85-.49-4.74.38-6.1,6-11.92,12.25-18.35,19,10.14,3.51,14.63,10.78,16,19.64,1,6.69.65,13.62.52,20.44-.09,4.4-2.48,6.29-7.26,6.19-13.93-.29-27.86-.08-41.8-.13a49.25,49.25,0,0,1-5.4-.62c.9-2.51,1.47-4.34,2.19-6.11q32.81-80.52,65.56-161.06c1-2.54,1.78-5.78,1.14-8.31-2.37-9.29-5.21-18.47-8.31-27.54C1037.62,65,1035,63,1033.36,63q-39.43-.33-78.89,0c-1.47,0-4,1.53-4.21,2.68-2.23,12.48-4.09,25-6.1,37.82l4.55,1.55c3.78-2.34,6.45-5.39,9.2-5.47,15.61-.47,31.25-.23,47.71-.23C1004.61,102,1003.94,104,1003.14,105.88ZM212.66,261.8q0-89.37,0-178.74c0-5.9.09-11.45,6.06-14.13-.22-5.09-2.6-6.33-7-6.24-13.15.28-26.31.24-39.46,0-4.55-.08-7.28,1-6.87,6.65,5.36,2,5.72,6.8,5.7,12-.07,28.42,0,56.84,0,85.26,0,40.57.06,81.14-.12,121.71a18,18,0,0,1-2.82,9.71c-1.46,2.1-4.15,3.54-2.05,6.13a8.21,8.21,0,0,0,5.7,2.52q45.64.23,91.29.06c1.93,0,3.86-.59,6.94-1.09-10.3-11.63-8.67-24.18-6.41-36.6,1.74-9.62,4.58-19,6.45-28.64,2.1-10.72,4.42-21.49,5.22-32.35.58-8-2.24-15.67-10.34-19.61-1.79-.88-5.21-1.25-6.34-.2-6.39,5.92-12.31,12.33-18.53,18.72,10.15,5.68,12.83,8.74,14.54,17.28,2.84,14.17,1.28,28.11-3.16,41.72-.56,1.74-3,4-4.66,4.07-11,.36-21.92.19-34.08.19Zm130.43,38c-5.17-3.33-4.73-8.18-4.73-13.07q0-101.73,0-203.47c0-5.79-.55-11.65,5.88-14-.07-5-1.9-6.63-6.21-6.55q-20.31.34-40.64,0c-4.58-.07-6.56,1.63-6.31,6.45,5.28,2.56,5.92,7.37,5.84,12.78-.19,11.37-.06,22.74-.06,34.1,0,57.24.07,114.48-.16,171.71,0,3.72-2.37,7.42-3.63,11.13-.55,1.62-1.9,3.55-1.43,4.8a5.55,5.55,0,0,0,4.16,2.93c15.5.21,31,.13,47.47.13C343.24,304.1,344.13,300.43,343.09,299.77Z" transform="translate(49.72)"/><g class="cls-4"><g class="cls-5"><rect class="cls-6" y="369.71" width="1181.84" height="7.32"/><rect class="cls-6" y="358.52" width="1181.84" height="6.94"/><rect class="cls-6" y="347.32" width="1181.84" height="6.57"/><rect class="cls-6" y="336.13" width="1181.84" height="6.2"/><rect class="cls-6" y="324.94" width="1181.84" height="5.83"/><rect class="cls-6" y="313.74" width="1181.84" height="5.46"/><rect class="cls-6" y="302.55" width="1181.84" height="5.09"/><rect class="cls-6" y="291.35" width="1181.84" height="4.72"/><rect class="cls-6" y="280.16" width="1181.84" height="4.34"/><rect class="cls-6" y="268.97" width="1181.84" height="3.97"/><rect class="cls-6" y="257.77" width="1181.84" height="3.6"/><rect class="cls-6" y="246.58" width="1181.84" height="3.23"/><rect class="cls-6" y="235.38" width="1181.84" height="2.86"/><rect class="cls-6" y="224.19" width="1181.84" height="2.49"/></g></g></g></g></svg>