<svg xmlns="http://www.w3.org/2000/svg" viewBox="0 0 17 16.27"><defs><style>.cls-1{fill:none;stroke:#f0c630;stroke-miterlimit:10;}</style></defs><g id="Layer_2" data-name="Layer 2"><g id="Layer_1-2" data-name="Layer 1"><path class="cls-1" d="M9,.83l2,4.08a.57.57,0,0,0,.45.32l4.5.66a.59.59,0,0,1,.33,1l-3.26,3.17a.61.61,0,0,0-.17.53l.77,4.48a.6.6,0,0,1-.86.63l-4-2.12a.57.57,0,0,0-.54,0l-4,2.12a.6.6,0,0,1-.86-.63l.77-4.48a.61.61,0,0,0-.17-.53L.68,6.9a.59.59,0,0,1,.33-1l4.5-.66A.57.57,0,0,0,6,4.91L8,.83A.59.59,0,0,1,9,.83Z"/></g></g></svg>