<svg xmlns="http://www.w3.org/2000/svg" viewBox="0 0 16 15.27"><defs><style>.cls-1{fill:#f0c630;}</style></defs><g id="Layer_2" data-name="Layer 2"><g id="Layer_1-2" data-name="Layer 1"><path class="cls-1" d="M8.53.33l2,4.08a.57.57,0,0,0,.45.32l4.5.66a.59.59,0,0,1,.33,1L12.56,9.57a.61.61,0,0,0-.17.53l.77,4.48a.6.6,0,0,1-.86.63l-4-2.12a.57.57,0,0,0-.54,0l-4,2.12a.6.6,0,0,1-.86-.63l.77-4.48a.61.61,0,0,0-.17-.53L.18,6.4a.59.59,0,0,1,.33-1L5,4.73a.57.57,0,0,0,.45-.32l2-4.08A.59.59,0,0,1,8.53.33Z"/></g></g></svg>